Patient4_TMGait_0pt7_02_right_37_GRF.mot
version=1
nRows=39
nColumns=19
inDegrees=no
endheader
time	F1x	F1y	F1z	M1x	M1y	M1z	F2x	F2y	F2z	M2x	M2y	M2z	EC1x	EC1y	EC1z	EC2x	EC2y	EC2z
41.8	-19.0523	741.9732	54.1772	-254.7639	-58.7937	707.6427	6.2825	-1.1104	-25.7164	7.1656	15.3157	-9.8117	-0.0592	0.0182	-0.0073	-0.0462	0.0165	0.9585
41.8114	-10.8454	741.9803	54.942	-254.2519	-56.078	712.1609	4.1682	0.19421	-17.7126	5.3353	10.6085	-5.6866	-0.0592	0.0182	-0.0073	-0.0462	0.0165	0.9585
41.8229	-3.4941	742.7193	55.4685	-254.0246	-53.421	715.6625	2.3632	1.3717	-10.7841	3.7601	6.5229	-2.1038	-0.0592	0.0182	-0.0073	-0.0462	0.0165	0.9585
41.8343	2.6203	744.1953	55.8076	-254.1077	-51.016	717.9486	0.95345	2.3539	-5.4126	2.556	3.355	0.74254	-0.0592	0.0182	-0.0073	-0.0462	0.0165	0.9585
41.8457	7.5468	746.2837	55.9549	-254.462	-48.854	719.021	-0.030968	3.093	-1.6333	1.7229	1.1209	2.7883	-0.0592	0.0182	-0.0073	-0.0462	0.0165	0.9585
41.8571	11.4348	748.7452	56.0387	-254.989	-46.9985	718.9697	-0.67202	3.6319	0.75776	1.2125	-0.28887	4.1716	-0.0592	0.0182	-0.0073	-0.0462	0.0165	0.9585
41.8686	14.5737	751.26	56.1266	-255.5583	-45.418	717.8554	-1.0224	3.9527	2.0616	0.93313	-1.0499	4.9639	-0.0592	0.0182	-0.0073	-0.0462	0.0165	0.9585
41.88	17.2085	753.4804	56.3742	-256.0212	-44.1727	715.7019	-1.1903	4.0656	2.591	0.79346	-1.3332	5.2877	-0.0592	0.0182	-0.0073	-0.0462	0.0165	0.9585
41.8914	19.5778	755.0297	56.865	-256.2324	-43.2592	712.4196	-1.221	3.9168	2.6029	0.69417	-1.2885	5.1546	-0.0592	0.0182	-0.0073	-0.0462	0.0165	0.9585
41.9029	21.9153	755.6738	57.6556	-256.0998	-42.6537	707.9992	-1.1957	3.4563	2.3222	0.54978	-1.0479	4.5928	-0.0592	0.0182	-0.0073	-0.0462	0.0165	0.9585
41.9143	24.3954	755.3194	58.7278	-255.5967	-42.2846	702.468	-1.1178	2.5975	1.8894	0.28276	-0.70185	3.5383	-0.0592	0.0182	-0.0073	-0.0462	0.0165	0.9585
41.9257	27.1489	754.098	59.9845	-254.78	-42.0188	696.0122	-1.0283	1.2722	1.4133	-0.16302	-0.32424	1.9478	-0.0592	0.0182	-0.0073	-0.0462	0.0165	0.9585
41.9371	30.2837	752.3181	61.326	-253.7689	-41.7303	688.9613	-0.89659	-0.56959	0.96009	-0.819	0.019348	-0.23026	-0.0592	0.0182	-0.0073	-0.0462	0.0165	0.9585
41.9486	33.845	750.4042	62.6057	-252.7268	-41.2617	681.7151	-0.72541	-2.8784	0.57938	-1.6683	0.27339	-2.9197	-0.0592	0.0182	-0.0073	-0.0462	0.0165	0.9585
41.96	37.8617	748.8919	63.7529	-251.846	-40.5331	674.7702	-0.46385	-5.4703	0.33136	-2.6309	0.35605	-5.9306	-0.0592	0.0182	-0.0073	-0.0462	0.0165	0.9585
41.9714	42.3168	748.2988	64.7095	-251.3106	-39.4883	668.5907	-0.088074	-7.8954	0.29687	-3.524	0.16712	-8.7518	-0.0592	0.0182	-0.0073	-0.0462	0.0165	0.9585
41.9829	47.122	749.0596	65.495	-251.2721	-38.163	663.5554	0.46083	-9.3972	0.59259	-4.0399	-0.4424	-10.542	-0.0592	0.0182	-0.0073	-0.0462	0.0165	0.9585
41.9943	52.1783	751.3747	66.1607	-251.8023	-36.63	659.8568	1.186	-8.7888	1.3473	-3.7021	-1.6238	-9.945	-0.0592	0.0182	-0.0073	-0.0462	0.0165	0.9585
42.0057	57.3129	755.1399	66.7669	-252.8682	-34.987	657.4263	2.0877	-4.4306	2.714	-1.8541	-3.545	-5.0927	-0.0592	0.0182	-0.0073	-0.0462	0.0165	0.9585
42.0171	62.3683	759.9062	67.3644	-254.3186	-33.3267	655.9112	3.0622	5.7587	4.8107	2.3286	-6.2974	6.4019	-0.0592	0.0182	-0.0073	-0.0462	0.0165	0.9585
42.0286	67.1658	764.8112	67.9077	-255.8634	-31.6667	654.6481	3.9363	24.0962	7.6972	9.7582	-9.8697	27.1831	-0.0592	0.0182	-0.0073	-0.0462	0.0165	0.9585
42.04	71.5377	768.6102	68.2945	-257.0816	-29.9908	652.6334	4.3991	52.7545	11.2828	21.2759	-14.0186	59.7669	-0.0592	0.0182	-0.0073	-0.0462	0.0165	0.9585
42.0514	75.3211	769.6945	68.3133	-257.4324	-28.1993	648.5886	3.9838	93.0399	15.2195	37.3659	-18.1443	105.687	-0.0592	0.0182	-0.0073	-0.0462	0.0165	0.9585
42.0629	78.3746	766.1817	67.7196	-256.2877	-26.174	641.0146	2.0386	144.391	18.7685	57.7459	-21.1308	164.3565	-0.0592	0.0182	-0.0073	-0.0462	0.0165	0.9585
42.0743	80.4897	756.0409	66.2526	-252.9737	-23.8026	628.3319	-2.3565	203.11	20.7402	80.8712	-21.2831	231.6041	-0.0592	0.0182	-0.0073	-0.0462	0.0165	0.9585
42.0857	81.5028	737.3334	63.6971	-246.8448	-21.0055	609.0457	-9.6584	261.8048	19.7962	103.7535	-16.9679	298.9979	-0.0592	0.0182	-0.0073	-0.0462	0.0165	0.9585
42.0971	81.2015	708.5602	59.984	-237.3937	-17.8377	582.0274	-18.5084	311.6114	15.2147	122.9266	-8.043	356.2001	-0.0592	0.0182	-0.0073	-0.0462	0.0165	0.9585
42.1086	79.4621	669.0847	55.1915	-224.3894	-14.4344	546.825	-26.8607	347.8539	7.9441	136.5945	3.5757	397.5883	-0.0592	0.0182	-0.0073	-0.0462	0.0165	0.9585
42.12	76.2156	619.401	49.5971	-207.9628	-11.0525	503.9441	-33.9624	371.814	-0.93727	145.2818	16.3591	424.4184	-0.0592	0.0182	-0.0073	-0.0462	0.0165	0.9585
42.1314	71.5334	560.9814	43.556	-188.5737	-7.942	454.5984	-39.5114	388.4053	-10.5067	150.9315	29.1759	442.2131	-0.0592	0.0182	-0.0073	-0.0462	0.0165	0.9585
42.1429	65.5689	496.0654	37.412	-166.9448	-5.3029	400.6286	-43.5399	402.9413	-19.6962	155.6883	40.8891	457.0116	-0.0592	0.0182	-0.0073	-0.0462	0.0165	0.9585
42.1543	58.562	427.3714	31.3842	-143.9806	-3.1986	344.1844	-46.1577	419.6928	-27.8514	161.2642	50.8339	473.6639	-0.0592	0.0182	-0.0073	-0.0462	0.0165	0.9585
42.1657	50.7243	357.8723	25.5916	-120.6842	-1.6126	287.6088	-47.4264	440.9447	-34.4483	168.6026	58.5065	494.7122	-0.0592	0.0182	-0.0073	-0.0462	0.0165	0.9585
42.1771	42.4044	290.5583	20.1365	-98.0752	-0.4772	233.211	-47.5427	467.3239	-39.6645	177.9607	64.1652	520.8625	-0.0592	0.0182	-0.0073	-0.0462	0.0165	0.9585
42.1886	33.9804	228.1529	15.096	-77.0861	0.31292	183.0881	-46.6131	498.4448	-43.8931	189.1663	68.2957	551.6622	-0.0592	0.0182	-0.0073	-0.0462	0.0165	0.9585
42.2	25.9671	172.8091	10.6421	-58.4528	0.81969	138.823	-44.8147	533.0841	-47.8423	201.7121	71.7064	585.8193	-0.0592	0.0182	-0.0073	-0.0462	0.0165	0.9585
42.2114	18.8161	125.8757	6.8961	-42.6332	1.1268	101.4025	-42.3301	569.6339	-52.0212	214.9424	75.0079	621.5996	-0.0592	0.0182	-0.0073	-0.0462	0.0165	0.9585
42.2229	12.831	87.6653	3.9677	-29.7433	1.2575	70.9679	-39.5069	606.3728	-56.7019	228.1767	78.6088	657.1861	-0.0592	0.0182	-0.0073	-0.0462	0.0165	0.9585
42.2343	8.0781	57.8028	1.8355	-19.6565	1.2429	47.1989	-36.6677	641.8863	-61.8027	240.8865	82.5456	691.1114	-0.0592	0.0182	-0.0073	-0.0462	0.0165	0.9585
